<svg xmlns="http://www.w3.org/2000/svg" xmlns:xlink="http://www.w3.org/1999/xlink" width="700" height="500">
<defs>
<style type="text/css"><![CDATA[
  .borderLine {
	   stroke: none;
	   fill-opacity:  0.4 ;
  }
  .outLine {
	   stroke-width:  1 ;
	   fill: none;
  }
  .circle {
	   stroke: #888888;
	   stroke-width: 0.5;
	   fill: none;
    pointer-events: all;
  }
  .nLabel {
	   font-family: Arial;
    pointer-events: none;
	   font-size: 10px;
	   text-anchor: middle;
	   alignment-baseline: central;
  }
  .belong {
	   font-family: Arial;
    pointer-events: none;
	   font-size: 5px;
	   text-anchor: middle;
	   alignment-baseline: central;
  }
  .legend {
    font-family: Arial;
    font-size: 15px;
  }
  #legendBox {
    display:  inline ;
  }
  .p0{
    stroke: none;
    fill: #e6194b;
  }
  .q0{
    fill: none;
    stroke: #e6194b;
  }
  .p1{
    stroke: none;
    fill: #3cb44b;
  }
  .q1{
    fill: none;
    stroke: #3cb44b;
  }
  .p2{
    stroke: none;
    fill: #ffe119;
  }
  .q2{
    fill: none;
    stroke: #ffe119;
  }
  .p3{
    stroke: none;
    fill: #0082c8;
  }
  .q3{
    fill: none;
    stroke: #0082c8;
  }
]]>
</style>
<symbol id="bl0">
<path d="M 286.86 320.01 L 283.56 322.52 L 280.48 325.30 L 277.63 328.31 L 274.99 331.53 L 272.53 334.91 L 270.21 338.40 L 267.99 341.98 L 265.85 345.62 L 263.75 349.28 L 261.67 352.95 L 259.61 356.64 L 257.55 360.32 L 255.49 364.00 L 253.42 367.68 L 251.32 371.35 L 249.19 374.99 L 247.00 378.60 L 244.74 382.17 L 242.38 385.67 L 239.92 389.11 L 237.37 392.47 L 234.75 395.77 L 232.10 399.04 L 229.46 402.32 L 226.89 405.64 L 224.43 409.04 L 222.14 412.55 L 220.04 416.19 L 218.12 419.95 L 216.34 423.81 L 214.64 427.72 L 212.91 431.60 L 211.05 435.37 L 208.97 438.95 L 206.59 442.25 L 203.91 445.23 L 200.90 447.84 L 197.61 450.06 L 194.05 451.84 L 190.28 453.18 L 186.37 454.11 L 182.37 454.71 L 178.30 455.01 L 174.20 455.08 L 170.08 454.97 L 165.95 454.75 L 161.81 454.47 L 157.68 454.15 L 153.54 453.81 L 149.41 453.46 L 145.27 453.11 L 141.14 452.76 L 137.00 452.40 L 132.87 452.04 L 128.74 451.68 L 124.61 451.29 L 120.49 450.87 L 116.37 450.39 L 112.28 449.82 L 108.21 449.11 L 104.20 448.21 L 100.26 447.09 L 96.42 445.72 L 92.70 444.07 L 89.16 442.09 L 85.82 439.78 L 82.73 437.15 L 79.91 434.23 L 77.36 431.06 L 75.07 427.68 L 72.98 424.15 L 71.09 420.49 L 69.37 416.74 L 67.76 412.93 L 66.24 409.07 L 64.77 405.19 L 63.34 401.29 L 61.92 397.39 L 60.51 393.49 L 59.11 389.58 L 57.70 385.67 L 56.30 381.77 L 54.90 377.86 L 53.49 373.95 L 52.09 370.04 L 50.69 366.13 L 49.30 362.22 L 47.90 358.30 L 46.52 354.39 L 45.16 350.46 L 43.84 346.53 L 42.57 342.57 L 41.41 338.60 L 40.38 334.60 L 39.53 330.56 L 38.91 326.50 L 38.56 322.43 L 38.50 318.34 L 38.75 314.28 L 39.33 310.25 L 40.24 306.29 L 41.47 302.41 L 43.02 298.66 L 44.87 295.04 L 47.01 291.59 L 49.44 288.34 L 52.12 285.29 L 55.05 282.48 L 58.21 279.92 L 61.56 277.64 L 65.09 275.64 L 68.78 273.94 L 72.60 272.55 L 76.52 271.48 L 80.52 270.72 L 84.58 270.27 L 88.67 270.11 L 92.78 270.19 L 96.90 270.48 L 101.02 270.92 L 105.14 271.46 L 109.26 272.06 L 113.38 272.65 L 117.50 273.19 L 121.62 273.64 L 125.75 273.94 L 129.88 274.06 L 134.01 273.95 L 138.12 273.58 L 142.20 272.96 L 146.25 272.10 L 150.27 271.03 L 154.26 269.82 L 158.23 268.55 L 162.19 267.35 L 166.15 266.32 L 170.12 265.56 L 174.10 265.13 L 178.06 265.08 L 181.99 265.40 L 185.88 266.09 L 189.70 267.12 L 193.46 268.43 L 197.16 269.97 L 200.81 271.66 L 204.44 273.42 L 208.08 275.18 L 211.76 276.86 L 215.49 278.40 L 219.30 279.72 L 223.22 280.78 L 227.24 281.53 L 231.37 281.93 L 235.59 281.95 L 239.86 281.59 L 244.13 280.84 L 248.34 279.68 L 252.42 278.14 L 256.32 276.21 L 259.99 273.93 L 263.39 271.30 L 266.52 268.36 L 269.34 265.13 L 271.85 261.64 L 274.05 257.93 L 275.95 254.04 L 277.59 250.01 L 279.01 245.86 L 280.27 241.64 L 281.43 237.38 L 282.52 233.08 L 283.58 228.78 L 284.64 224.47 L 285.71 220.17 L 286.84 215.88 L 288.04 211.63 L 289.37 207.42 L 290.87 203.29 L 292.60 199.27 L 294.59 195.39 L 296.87 191.70 L 299.45 188.24 L 302.34 185.03 L 305.51 182.12 L 308.95 179.54 L 312.62 177.31 L 316.50 175.46 L 320.54 174.00 L 324.70 172.94 L 328.96 172.31 L 333.25 172.10 L 337.54 172.32 L 341.79 172.96 L 345.96 174.01 L 350.00 175.47 L 353.89 177.32 L 357.57 179.54 L 361.02 182.12 L 364.20 185.03 L 367.07 188.25 L 369.60 191.73 L 371.77 195.45 L 373.57 199.37 L 374.96 203.44 L 375.94 207.63 L 376.50 211.90 L 376.63 216.20 L 376.35 220.49 L 375.64 224.73 L 374.52 228.89 L 372.99 232.93 L 371.08 236.83 L 368.82 240.56 L 366.28 244.14 L 363.54 247.58 L 360.68 250.91 L 357.80 254.16 L 354.98 257.38 L 352.25 260.60 L 349.64 263.83 L 347.12 267.08 L 344.68 270.36 L 342.29 273.65 L 339.92 276.96 L 337.58 280.27 L 335.23 283.59 L 332.87 286.88 L 330.48 290.15 L 328.03 293.36 L 325.48 296.46 L 322.78 299.41 L 319.88 302.15 L 316.73 304.63 L 313.33 306.85 L 309.69 308.82 L 305.86 310.59 L 301.93 312.27 L 297.98 313.95 L 294.11 315.76 L 290.39 317.76 Z" />
</symbol>
<symbol id="bl1">
<path d="M 271.07 289.03 L 272.04 293.27 L 273.20 297.49 L 274.34 301.74 L 275.33 306.06 L 276.04 310.50 L 276.18 315.05 L 275.63 319.66 L 274.55 324.23 L 273.13 328.77 L 271.40 333.25 L 269.43 337.65 L 267.31 341.99 L 265.09 346.27 L 262.83 350.52 L 260.53 354.75 L 258.22 358.96 L 255.89 363.16 L 253.54 367.33 L 251.13 371.48 L 248.63 375.56 L 246.00 379.53 L 243.19 383.35 L 240.14 386.95 L 236.86 390.27 L 233.34 393.31 L 229.49 395.88 L 225.35 397.89 L 220.93 399.20 L 216.38 399.88 L 211.75 399.87 L 207.13 399.14 L 202.61 397.74 L 198.19 396.00 L 193.74 394.21 L 189.30 392.36 L 184.85 390.50 L 180.38 388.68 L 175.90 386.92 L 171.40 385.19 L 166.90 383.50 L 162.38 381.83 L 157.87 380.17 L 153.35 378.52 L 148.84 376.87 L 144.31 375.25 L 139.78 373.66 L 135.23 372.14 L 130.66 370.74 L 126.06 369.52 L 121.41 368.53 L 116.71 367.83 L 111.98 367.44 L 107.23 367.34 L 102.47 367.45 L 97.73 367.66 L 93.02 367.84 L 88.37 367.86 L 83.79 367.60 L 79.29 367.02 L 74.90 366.05 L 70.63 364.71 L 66.52 362.98 L 62.58 360.88 L 58.86 358.43 L 55.38 355.65 L 52.17 352.56 L 49.25 349.19 L 46.64 345.57 L 44.38 341.72 L 42.47 337.68 L 40.92 333.48 L 39.73 329.15 L 38.87 324.73 L 38.29 320.25 L 37.96 315.72 L 37.83 311.17 L 37.85 306.60 L 37.96 302.03 L 38.12 297.45 L 38.32 292.87 L 38.53 288.29 L 38.75 283.70 L 38.97 279.12 L 39.19 274.54 L 39.42 269.96 L 39.64 265.38 L 39.86 260.80 L 40.09 256.22 L 40.31 251.64 L 40.54 247.06 L 40.77 242.47 L 40.99 237.89 L 41.22 233.31 L 41.45 228.73 L 41.68 224.15 L 41.90 219.58 L 42.13 215.00 L 42.36 210.42 L 42.59 205.84 L 42.82 201.27 L 43.05 196.69 L 43.28 192.11 L 43.51 187.54 L 43.74 182.97 L 43.98 178.40 L 44.21 173.82 L 44.44 169.25 L 44.68 164.68 L 44.91 160.11 L 45.14 155.54 L 45.38 150.98 L 45.61 146.41 L 45.85 141.84 L 46.09 137.28 L 46.32 132.72 L 46.56 128.15 L 46.79 123.59 L 47.03 119.03 L 47.27 114.47 L 47.51 109.91 L 47.75 105.35 L 47.99 100.79 L 48.25 96.24 L 48.53 91.69 L 48.86 87.15 L 49.26 82.62 L 49.77 78.11 L 50.42 73.63 L 51.22 69.18 L 52.19 64.77 L 53.37 60.37 L 54.81 56.04 L 56.53 51.81 L 58.52 47.71 L 60.77 43.75 L 63.26 39.92 L 66.01 36.29 L 68.97 32.81 L 72.18 29.56 L 75.55 26.50 L 79.15 23.70 L 82.92 21.12 L 86.83 18.77 L 90.89 16.70 L 95.08 14.89 L 99.38 13.36 L 103.76 12.10 L 108.22 11.14 L 112.74 10.47 L 117.28 10.07 L 121.84 10.00 L 126.40 10.20 L 130.94 10.71 L 135.43 11.50 L 139.86 12.59 L 144.22 13.94 L 148.47 15.60 L 152.62 17.47 L 156.66 19.49 L 160.65 21.63 L 164.58 23.89 L 168.45 26.27 L 172.27 28.73 L 176.05 31.25 L 179.82 33.80 L 183.57 36.37 L 187.32 38.95 L 191.07 41.53 L 194.81 44.12 L 198.56 46.71 L 202.30 49.30 L 206.05 51.90 L 209.80 54.49 L 213.55 57.09 L 217.30 59.68 L 221.05 62.28 L 224.80 64.88 L 228.55 67.48 L 232.30 70.07 L 236.05 72.67 L 239.80 75.28 L 243.54 77.88 L 247.29 80.49 L 251.02 83.12 L 254.74 85.77 L 258.42 88.47 L 262.05 91.23 L 265.58 94.10 L 269.00 97.09 L 272.26 100.23 L 275.31 103.55 L 278.13 107.06 L 280.67 110.76 L 282.91 114.64 L 284.83 118.69 L 286.41 122.87 L 287.66 127.17 L 288.58 131.57 L 289.18 136.03 L 289.49 140.53 L 289.55 145.06 L 289.42 149.60 L 289.14 154.16 L 288.77 158.71 L 288.34 163.27 L 287.88 167.83 L 287.41 172.39 L 286.93 176.96 L 286.44 181.52 L 285.96 186.08 L 285.47 190.65 L 284.99 195.22 L 284.50 199.78 L 284.01 204.35 L 283.52 208.92 L 283.04 213.49 L 282.54 218.05 L 282.03 222.62 L 281.51 227.18 L 280.93 231.74 L 280.29 236.28 L 279.54 240.79 L 278.63 245.27 L 277.56 249.71 L 276.32 254.11 L 274.97 258.49 L 273.59 262.86 L 272.30 267.23 L 271.24 271.62 L 270.53 276.01 L 270.25 280.40 L 270.44 284.74 Z" />
</symbol>
<symbol id="bl2">
<path d="M 402.80 364.82 L 397.59 367.23 L 392.38 369.64 L 387.16 372.04 L 381.94 374.43 L 376.72 376.83 L 371.49 379.22 L 366.26 381.61 L 361.03 384.00 L 355.79 386.36 L 350.54 388.70 L 345.27 390.96 L 339.97 393.11 L 334.62 395.07 L 329.23 396.75 L 323.79 398.06 L 318.34 399.00 L 312.90 399.35 L 307.56 399.09 L 302.42 398.24 L 297.55 396.90 L 292.98 395.16 L 288.74 393.05 L 284.83 390.63 L 281.19 387.97 L 277.78 385.13 L 274.53 382.16 L 271.38 379.11 L 268.30 376.01 L 265.25 372.88 L 262.21 369.75 L 259.18 366.61 L 256.14 363.47 L 253.08 360.33 L 249.97 357.21 L 246.78 354.13 L 243.46 351.12 L 239.94 348.21 L 236.16 345.50 L 232.08 343.05 L 227.70 340.98 L 223.03 339.36 L 218.09 338.36 L 212.96 338.07 L 207.73 338.39 L 202.43 339.17 L 197.11 340.27 L 191.77 341.46 L 186.43 342.49 L 181.10 343.17 L 175.80 343.36 L 170.57 342.94 L 165.48 341.87 L 160.59 340.14 L 155.99 337.80 L 151.76 334.88 L 148.01 331.45 L 144.75 327.64 L 142.01 323.56 L 139.73 319.32 L 137.80 315.03 L 136.09 310.72 L 134.44 306.43 L 132.69 302.18 L 130.70 297.99 L 128.39 293.90 L 125.75 289.95 L 122.77 286.16 L 119.50 282.54 L 116.00 279.10 L 112.32 275.81 L 108.53 272.63 L 104.69 269.50 L 100.87 266.36 L 97.12 263.15 L 93.50 259.82 L 90.06 256.32 L 86.86 252.64 L 83.92 248.75 L 81.29 244.66 L 78.99 240.39 L 77.04 235.94 L 75.46 231.36 L 74.26 226.66 L 73.45 221.87 L 73.03 217.04 L 73.01 212.19 L 73.39 207.35 L 74.16 202.56 L 75.32 197.85 L 76.86 193.25 L 78.77 188.79 L 81.04 184.50 L 83.66 180.41 L 86.60 176.55 L 89.85 172.94 L 93.38 169.62 L 97.17 166.60 L 101.18 163.92 L 105.38 161.58 L 109.73 159.60 L 114.19 158.00 L 118.71 156.76 L 123.29 155.89 L 127.93 155.39 L 132.63 155.26 L 137.41 155.51 L 142.26 156.15 L 147.16 157.17 L 152.08 158.57 L 156.97 160.32 L 161.82 162.35 L 166.62 164.61 L 171.36 167.04 L 176.06 169.59 L 180.73 172.19 L 185.38 174.83 L 190.04 177.46 L 194.71 180.05 L 199.40 182.54 L 204.13 184.89 L 208.87 187.02 L 213.62 188.87 L 218.34 190.40 L 223.01 191.56 L 227.62 192.36 L 232.20 192.79 L 236.79 192.89 L 241.48 192.67 L 246.30 192.15 L 251.30 191.34 L 256.47 190.28 L 261.77 189.02 L 267.17 187.60 L 272.62 186.09 L 278.10 184.51 L 283.60 182.91 L 289.10 181.29 L 294.61 179.69 L 300.12 178.12 L 305.65 176.62 L 311.19 175.25 L 316.74 174.08 L 322.31 173.20 L 327.89 172.69 L 333.48 172.50 L 339.07 172.79 L 344.54 173.82 L 349.83 175.56 L 354.86 177.96 L 359.65 180.88 L 364.37 183.98 L 368.98 187.31 L 373.48 190.83 L 377.90 194.47 L 382.28 198.17 L 386.64 201.92 L 390.97 205.68 L 395.31 209.45 L 399.64 213.22 L 403.96 216.99 L 408.29 220.76 L 412.61 224.54 L 416.93 228.32 L 421.23 232.10 L 425.52 235.90 L 429.77 239.74 L 433.96 243.63 L 438.04 247.61 L 441.97 251.72 L 445.71 255.98 L 449.31 260.36 L 452.62 264.98 L 455.47 269.87 L 457.83 274.99 L 459.68 280.32 L 461.03 285.79 L 461.85 291.37 L 462.17 297.00 L 461.90 302.63 L 461.14 308.22 L 459.82 313.70 L 458.01 319.03 L 455.70 324.17 L 452.89 329.06 L 449.66 333.66 L 446.00 337.95 L 441.93 341.87 L 437.55 345.43 L 432.97 348.72 L 428.22 351.80 L 423.31 354.65 L 418.27 357.34 L 413.16 359.90 L 407.99 362.38 Z" />
</symbol>
<symbol id="bl3">
<path d="M 351.08 378.07 L 349.15 383.08 L 347.02 388.05 L 344.78 392.98 L 342.48 397.89 L 340.13 402.78 L 337.76 407.66 L 335.39 412.54 L 333.02 417.42 L 330.64 422.29 L 328.26 427.17 L 325.88 432.04 L 323.49 436.90 L 321.09 441.76 L 318.66 446.59 L 316.17 451.39 L 313.59 456.12 L 310.86 460.74 L 307.93 465.19 L 304.78 469.46 L 301.39 473.53 L 297.67 477.29 L 293.59 480.63 L 289.17 483.48 L 284.48 485.86 L 279.56 487.71 L 274.47 489.04 L 269.26 489.80 L 263.99 490.00 L 258.71 489.65 L 253.49 488.72 L 248.34 487.47 L 243.23 485.97 L 238.18 484.20 L 233.17 482.24 L 228.21 480.13 L 223.28 477.95 L 218.36 475.71 L 213.45 473.45 L 208.54 471.18 L 203.63 468.90 L 198.73 466.62 L 193.84 464.32 L 188.96 462.00 L 184.12 459.64 L 179.35 457.18 L 174.70 454.60 L 170.19 451.87 L 165.79 449.09 L 161.78 445.85 L 158.46 442.01 L 155.85 437.74 L 154.01 433.18 L 152.97 428.48 L 152.69 423.75 L 153.03 419.08 L 153.81 414.45 L 155.07 409.80 L 156.77 405.12 L 158.82 400.40 L 161.12 395.61 L 163.59 390.79 L 166.15 385.94 L 168.79 381.07 L 171.46 376.20 L 174.18 371.35 L 176.97 366.54 L 179.87 361.80 L 182.93 357.16 L 186.20 352.65 L 189.69 348.30 L 193.38 344.08 L 197.16 339.93 L 200.88 335.80 L 204.39 331.60 L 207.51 327.31 L 210.14 322.93 L 212.20 318.50 L 213.69 314.05 L 214.60 309.62 L 214.98 305.20 L 214.84 300.80 L 214.20 296.41 L 213.09 292.06 L 211.54 287.76 L 209.62 283.53 L 207.40 279.37 L 205.01 275.26 L 202.54 271.17 L 200.11 267.06 L 197.82 262.89 L 195.77 258.62 L 194.03 254.26 L 192.65 249.83 L 191.67 245.35 L 191.08 240.86 L 190.85 236.42 L 190.90 232.05 L 191.13 227.75 L 191.42 223.50 L 191.67 219.28 L 191.78 215.02 L 191.71 210.70 L 191.43 206.25 L 190.94 201.64 L 190.25 196.86 L 189.41 191.92 L 188.44 186.86 L 187.41 181.72 L 186.34 176.55 L 185.27 171.42 L 184.25 166.37 L 183.31 161.44 L 182.48 156.69 L 181.80 152.11 L 181.31 147.70 L 181.05 143.43 L 181.04 139.25 L 181.31 135.14 L 181.88 131.07 L 182.77 127.02 L 183.98 123.01 L 185.50 119.06 L 187.33 115.19 L 189.44 111.46 L 191.82 107.90 L 194.45 104.55 L 197.30 101.45 L 200.37 98.60 L 203.63 96.02 L 207.08 93.71 L 210.68 91.67 L 214.44 89.93 L 218.31 88.47 L 222.29 87.32 L 226.35 86.48 L 230.46 85.95 L 234.60 85.75 L 238.74 85.86 L 242.86 86.30 L 246.93 87.05 L 250.94 88.12 L 254.85 89.49 L 258.63 91.15 L 262.28 93.11 L 265.77 95.33 L 269.07 97.81 L 272.18 100.53 L 275.08 103.47 L 277.74 106.63 L 280.16 109.97 L 282.31 113.50 L 284.19 117.17 L 285.80 120.98 L 287.13 124.90 L 288.19 128.91 L 288.99 132.98 L 289.55 137.10 L 289.92 141.25 L 290.11 145.42 L 290.18 149.60 L 290.17 153.79 L 290.11 157.98 L 290.01 162.17 L 289.91 166.37 L 289.79 170.57 L 289.68 174.77 L 289.56 178.97 L 289.45 183.17 L 289.33 187.37 L 289.22 191.57 L 289.12 195.77 L 289.03 199.97 L 288.99 204.17 L 289.02 208.35 L 289.18 212.52 L 289.51 216.65 L 290.08 220.74 L 290.92 224.77 L 292.08 228.70 L 293.57 232.51 L 295.39 236.18 L 297.55 239.67 L 300.03 242.98 L 302.82 246.10 L 305.87 249.06 L 309.11 251.92 L 312.48 254.79 L 315.86 257.76 L 319.24 260.87 L 322.32 264.43 L 324.91 268.48 L 327.28 272.79 L 329.42 277.33 L 331.34 282.07 L 333.10 286.92 L 334.78 291.85 L 336.42 296.81 L 338.07 301.78 L 339.77 306.74 L 341.56 311.70 L 343.46 316.65 L 345.47 321.61 L 347.55 326.58 L 349.61 331.58 L 351.52 336.64 L 353.15 341.76 L 354.41 346.93 L 355.18 352.15 L 355.38 357.41 L 354.99 362.65 L 354.06 367.85 L 352.74 372.99 Z" />
</symbol>
</defs>
<!-- isDone: 0 -->
<rect width="700" height="500" style="fill:#fff;stroke-width:0" />
<use class="p0 borderLine" xlink:href="#bl0"/>
<use class="p1 borderLine" xlink:href="#bl1"/>
<use class="p2 borderLine" xlink:href="#bl2"/>
<use class="p3 borderLine" xlink:href="#bl3"/>
<use class="q0 outLine" xlink:href="#bl0"/>
<use class="q1 outLine" xlink:href="#bl1"/>
<use class="q2 outLine" xlink:href="#bl2"/>
<use class="q3 outLine" xlink:href="#bl3"/>
<circle onclick="fromCircle(8)" class="circle" cx="109.7932" cy="408.4857" r="39.3453" />
<text class="nLabel" x="109.79" y="403.49">44</text>
<text class="belong" x="109.79" y="413.49">(1)</text>
<circle onclick="fromCircle(12)" class="circle" cx="86.4200" cy="319.3597" r="47.4523" />
<text class="nLabel" x="86.42" y="314.36">64</text>
<text class="belong" x="86.42" y="324.36">(1, 2)</text>
<circle onclick="fromCircle(14)" class="circle" cx="175.7749" cy="304.7343" r="38.4407" />
<text class="nLabel" x="175.77" y="299.73">42</text>
<text class="belong" x="175.77" y="309.73">(1, 2, 3)</text>
<circle onclick="fromCircle(15)" class="circle" cx="247.0673" cy="313.7673" r="29.0585" />
<text class="nLabel" x="247.07" y="308.77">24</text>
<text class="belong" x="247.07" y="318.77">(1, 2, 3, 4)</text>
<circle onclick="fromCircle(4)" class="circle" cx="120.9111" cy="80.4578" r="70.4331" />
<text class="nLabel" x="120.91" y="75.46">141</text>
<text class="belong" x="120.91" y="85.46">(2)</text>
<circle onclick="fromCircle(6)" class="circle" cx="131.5324" cy="213.7172" r="58.1169" />
<text class="nLabel" x="131.53" y="208.72">96</text>
<text class="belong" x="131.53" y="218.72">(2, 3)</text>
<circle onclick="fromCircle(7)" class="circle" cx="234.7978" cy="237.8123" r="42.7729" />
<text class="nLabel" x="234.80" y="232.81">52</text>
<text class="belong" x="234.80" y="242.81">(2, 3, 4)</text>
<circle onclick="fromCircle(5)" class="circle" cx="235.2204" cy="138.5475" r="52.7206" />
<text class="nLabel" x="235.22" y="133.55">79</text>
<text class="belong" x="235.22" y="143.55">(2, 4)</text>
<circle onclick="fromCircle(2)" class="circle" cx="402.7666" cy="297.2296" r="59.3153" />
<text class="nLabel" x="402.77" y="292.23">100</text>
<text class="belong" x="402.77" y="302.23">(3)</text>
<circle onclick="fromCircle(10)" class="circle" cx="334.0168" cy="214.9532" r="42.3596" />
<text class="nLabel" x="334.02" y="209.95">51</text>
<text class="belong" x="334.02" y="219.95">(1, 3)</text>
<circle onclick="fromCircle(11)" class="circle" cx="299.2863" cy="281.2871" r="28.4466" />
<text class="nLabel" x="299.29" y="276.29">23</text>
<text class="belong" x="299.29" y="286.29">(1, 3, 4)</text>
<circle onclick="fromCircle(3)" class="circle" cx="312.5418" cy="356.5061" r="42.7729" />
<text class="nLabel" x="312.54" y="351.51">52</text>
<text class="belong" x="312.54" y="361.51">(3, 4)</text>
<circle onclick="fromCircle(1)" class="circle" cx="264.7459" cy="441.0258" r="48.9127" />
<text class="nLabel" x="264.75" y="436.03">68</text>
<text class="belong" x="264.75" y="446.03">(4)</text>
<circle onclick="fromCircle(9)" class="circle" cx="182.4449" cy="424.4106" r="29.6577" />
<text class="nLabel" x="182.44" y="419.41">25</text>
<text class="belong" x="182.44" y="429.41">(1, 4)</text>
<circle onclick="fromCircle(13)" class="circle" cx="214.1714" cy="369.0467" r="30.8212" />
<text class="nLabel" x="214.17" y="364.05">27</text>
<text class="belong" x="214.17" y="374.05">(1, 2, 4)</text>
<g id="legendBox">
<rect class="p0 borderLine" x="500.00" y="50.00" width="30.00" height="15.00" />
<rect class="q0" x="500.00" y="50.00" width="30.00" height="15.00" />
<text class="legend" x="540.00" y="65.00">type1</text>
<rect class="p1 borderLine" x="500.00" y="90.00" width="30.00" height="15.00" />
<rect class="q1" x="500.00" y="90.00" width="30.00" height="15.00" />
<text class="legend" x="540.00" y="105.00">type2</text>
<rect class="p2 borderLine" x="500.00" y="130.00" width="30.00" height="15.00" />
<rect class="q2" x="500.00" y="130.00" width="30.00" height="15.00" />
<text class="legend" x="540.00" y="145.00">type3</text>
<rect class="p3 borderLine" x="500.00" y="170.00" width="30.00" height="15.00" />
<rect class="q3" x="500.00" y="170.00" width="30.00" height="15.00" />
<text class="legend" x="540.00" y="185.00">type4</text>
</g>
</svg>
